<svg width="48" height="64" viewBox="0 0 48 64" fill="none" xmlns="http://www.w3.org/2000/svg">
    <defs>
        <linearGradient id="flame-grad" x1="0" y1="1" x2="0" y2="0">
            <stop offset="0%" stop-color="#c17c5c"/>
            <stop offset="50%" stop-color="#d4926f"/>
            <stop offset="100%" stop-color="#e8dcc4"/>
        </linearGradient>
    </defs>
    <!-- Outer flame -->
    <path d="M24 56 C24 56, 6 40, 6 28 C6 16, 14 6, 24 2 C20 14, 28 20, 32 16 C36 12, 34 4, 34 4 C40 10, 42 18, 42 28 C42 40, 24 56, 24 56Z" fill="url(#flame-grad)" opacity="0.9"/>
    <!-- Inner highlight (muted for light backgrounds) -->
    <path d="M24 56 C24 56, 14 44, 14 34 C14 26, 18 22, 24 18 C22 26, 26 30, 30 26 C32 24, 34 20, 34 20 C36 26, 36 30, 34 36 C32 44, 24 56, 24 56Z" fill="#c8bfa8" opacity="0.6"/>
    <!-- Logs (muted for light backgrounds) -->
    <line x1="4" y1="60" x2="28" y2="52" stroke="#c8bfa8" stroke-width="3.5" stroke-linecap="round" opacity="0.4"/>
    <line x1="44" y1="60" x2="20" y2="52" stroke="#c8bfa8" stroke-width="3.5" stroke-linecap="round" opacity="0.3"/>
</svg>
